<mxfile host="app.diagrams.net" agent="Mozilla/5.0 (Windows NT 10.0; Win64; x64) AppleWebKit/537.36 (KHTML, like Gecko) Chrome/127.0.0.0 Safari/537.36 Edg/127.0.0.0" version="24.7.6">
  <diagram name="Page-1" id="74e2e168-ea6b-b213-b513-2b3c1d86103e">
    <mxGraphModel dx="1471" dy="821" grid="1" gridSize="10" guides="1" tooltips="1" connect="1" arrows="0" fold="1" page="1" pageScale="1" pageWidth="1100" pageHeight="850" background="none" math="0" shadow="0">
      <root>
        <mxCell id="0" />
        <mxCell id="1" parent="0" />
        <mxCell id="77e6c97f196da883-1" value="Quy trính sales" style="swimlane;html=1;childLayout=stackLayout;startSize=20;rounded=0;shadow=0;labelBackgroundColor=none;strokeWidth=1;fontFamily=Verdana;fontSize=8;align=center;" parent="1" vertex="1">
          <mxGeometry x="110" y="10" width="670" height="740" as="geometry" />
        </mxCell>
        <mxCell id="77e6c97f196da883-40" style="edgeStyle=orthogonalEdgeStyle;rounded=1;html=1;labelBackgroundColor=none;startArrow=none;startFill=0;startSize=5;endArrow=classicThin;endFill=1;endSize=5;jettySize=auto;orthogonalLoop=1;strokeWidth=1;fontFamily=Verdana;fontSize=8" parent="77e6c97f196da883-1" source="77e6c97f196da883-23" target="77e6c97f196da883-24" edge="1">
          <mxGeometry relative="1" as="geometry" />
        </mxCell>
        <mxCell id="1G4_OR2GHPpzqo2KjdhQ-1" value="Khách hàng" style="swimlane;html=1;startSize=20;" vertex="1" parent="77e6c97f196da883-1">
          <mxGeometry y="20" width="190" height="720" as="geometry" />
        </mxCell>
        <mxCell id="1G4_OR2GHPpzqo2KjdhQ-2" value="" style="ellipse;shape=doubleEllipse;html=1;dashed=0;whiteSpace=wrap;aspect=fixed;" vertex="1" parent="1G4_OR2GHPpzqo2KjdhQ-1">
          <mxGeometry x="70" y="50" width="40" height="40" as="geometry" />
        </mxCell>
        <mxCell id="1G4_OR2GHPpzqo2KjdhQ-4" value="Chọn sản phẩm" style="rounded=1;whiteSpace=wrap;html=1;flipH=0;flipV=1;" vertex="1" parent="1G4_OR2GHPpzqo2KjdhQ-1">
          <mxGeometry x="35" y="150" width="115" height="60" as="geometry" />
        </mxCell>
        <mxCell id="1G4_OR2GHPpzqo2KjdhQ-3" value="Even" style="text;html=1;align=center;verticalAlign=middle;resizable=0;points=[];autosize=1;strokeColor=none;fillColor=none;" vertex="1" parent="1G4_OR2GHPpzqo2KjdhQ-1">
          <mxGeometry x="65" y="90" width="50" height="30" as="geometry" />
        </mxCell>
        <mxCell id="1G4_OR2GHPpzqo2KjdhQ-5" value="" style="endArrow=classic;html=1;rounded=0;entryX=0.5;entryY=0;entryDx=0;entryDy=0;" edge="1" parent="1G4_OR2GHPpzqo2KjdhQ-1" source="1G4_OR2GHPpzqo2KjdhQ-3" target="1G4_OR2GHPpzqo2KjdhQ-4">
          <mxGeometry width="50" height="50" relative="1" as="geometry">
            <mxPoint x="260" y="240" as="sourcePoint" />
            <mxPoint x="130" y="190" as="targetPoint" />
            <Array as="points">
              <mxPoint x="90" y="130" />
              <mxPoint x="90" y="140" />
            </Array>
          </mxGeometry>
        </mxCell>
        <mxCell id="1G4_OR2GHPpzqo2KjdhQ-28" value="Notifile oder fails" style="rounded=1;whiteSpace=wrap;html=1;" vertex="1" parent="1G4_OR2GHPpzqo2KjdhQ-1">
          <mxGeometry x="35" y="490" width="120" height="60" as="geometry" />
        </mxCell>
        <mxCell id="1G4_OR2GHPpzqo2KjdhQ-31" value="" style="endArrow=classic;html=1;rounded=0;exitX=0;exitY=0.5;exitDx=0;exitDy=0;" edge="1" parent="1G4_OR2GHPpzqo2KjdhQ-1" source="1G4_OR2GHPpzqo2KjdhQ-28" target="1G4_OR2GHPpzqo2KjdhQ-2">
          <mxGeometry width="50" height="50" relative="1" as="geometry">
            <mxPoint x="280" y="310" as="sourcePoint" />
            <mxPoint x="330" y="260" as="targetPoint" />
            <Array as="points">
              <mxPoint x="10" y="520" />
              <mxPoint x="10" y="370" />
              <mxPoint x="10" y="70" />
            </Array>
          </mxGeometry>
        </mxCell>
        <mxCell id="77e6c97f196da883-3" value="Nhân viên" style="swimlane;html=1;startSize=20;" parent="77e6c97f196da883-1" vertex="1">
          <mxGeometry x="190" y="20" width="160" height="720" as="geometry" />
        </mxCell>
        <mxCell id="1G4_OR2GHPpzqo2KjdhQ-16" value="Nhận order" style="rounded=1;whiteSpace=wrap;html=1;flipH=0;flipV=1;" vertex="1" parent="77e6c97f196da883-3">
          <mxGeometry x="20" y="210" width="120" height="60" as="geometry" />
        </mxCell>
        <mxCell id="77e6c97f196da883-4" value="thanh toán" style="swimlane;html=1;startSize=20;" parent="77e6c97f196da883-1" vertex="1">
          <mxGeometry x="350" y="20" width="160" height="720" as="geometry" />
        </mxCell>
        <mxCell id="1G4_OR2GHPpzqo2KjdhQ-20" value="Check credit" style="rounded=1;whiteSpace=wrap;html=1;" vertex="1" parent="77e6c97f196da883-4">
          <mxGeometry x="20" y="210" width="120" height="60" as="geometry" />
        </mxCell>
        <mxCell id="1G4_OR2GHPpzqo2KjdhQ-21" value="Credit ok?" style="rhombus;whiteSpace=wrap;html=1;" vertex="1" parent="77e6c97f196da883-4">
          <mxGeometry x="45" y="300" width="70" height="50" as="geometry" />
        </mxCell>
        <mxCell id="1G4_OR2GHPpzqo2KjdhQ-22" style="edgeStyle=orthogonalEdgeStyle;rounded=0;orthogonalLoop=1;jettySize=auto;html=1;exitX=0.5;exitY=1;exitDx=0;exitDy=0;" edge="1" parent="77e6c97f196da883-4" source="1G4_OR2GHPpzqo2KjdhQ-21" target="1G4_OR2GHPpzqo2KjdhQ-21">
          <mxGeometry relative="1" as="geometry" />
        </mxCell>
        <mxCell id="1G4_OR2GHPpzqo2KjdhQ-23" value="" style="endArrow=classic;html=1;rounded=0;entryX=0.5;entryY=0;entryDx=0;entryDy=0;exitX=0.5;exitY=1;exitDx=0;exitDy=0;" edge="1" parent="77e6c97f196da883-4" source="1G4_OR2GHPpzqo2KjdhQ-20" target="1G4_OR2GHPpzqo2KjdhQ-21">
          <mxGeometry width="50" height="50" relative="1" as="geometry">
            <mxPoint x="-70" y="230" as="sourcePoint" />
            <mxPoint x="-20" y="180" as="targetPoint" />
          </mxGeometry>
        </mxCell>
        <mxCell id="1G4_OR2GHPpzqo2KjdhQ-17" value="" style="endArrow=classic;html=1;rounded=0;entryX=0.5;entryY=0;entryDx=0;entryDy=0;exitX=1;exitY=0.5;exitDx=0;exitDy=0;" edge="1" parent="77e6c97f196da883-1" source="1G4_OR2GHPpzqo2KjdhQ-4" target="1G4_OR2GHPpzqo2KjdhQ-16">
          <mxGeometry width="50" height="50" relative="1" as="geometry">
            <mxPoint x="270" y="160" as="sourcePoint" />
            <mxPoint x="230" y="310" as="targetPoint" />
            <Array as="points">
              <mxPoint x="270" y="200" />
            </Array>
          </mxGeometry>
        </mxCell>
        <mxCell id="1G4_OR2GHPpzqo2KjdhQ-36" value="" style="endArrow=classic;html=1;rounded=0;exitX=1;exitY=0.5;exitDx=0;exitDy=0;entryX=0;entryY=0.5;entryDx=0;entryDy=0;" edge="1" parent="77e6c97f196da883-1" source="1G4_OR2GHPpzqo2KjdhQ-16" target="1G4_OR2GHPpzqo2KjdhQ-20">
          <mxGeometry width="50" height="50" relative="1" as="geometry">
            <mxPoint x="280" y="170" as="sourcePoint" />
            <mxPoint x="330" y="120" as="targetPoint" />
          </mxGeometry>
        </mxCell>
        <mxCell id="1G4_OR2GHPpzqo2KjdhQ-40" value="" style="endArrow=classic;html=1;rounded=0;entryX=0;entryY=0.5;entryDx=0;entryDy=0;exitX=1;exitY=0.5;exitDx=0;exitDy=0;" edge="1" parent="77e6c97f196da883-1" source="1G4_OR2GHPpzqo2KjdhQ-21" target="1G4_OR2GHPpzqo2KjdhQ-37">
          <mxGeometry width="50" height="50" relative="1" as="geometry">
            <mxPoint x="480" y="430" as="sourcePoint" />
            <mxPoint x="330" y="200" as="targetPoint" />
            <Array as="points">
              <mxPoint x="500" y="345" />
              <mxPoint x="500" y="90" />
            </Array>
          </mxGeometry>
        </mxCell>
        <mxCell id="1G4_OR2GHPpzqo2KjdhQ-46" value="yes" style="edgeLabel;html=1;align=center;verticalAlign=middle;resizable=0;points=[];" vertex="1" connectable="0" parent="1G4_OR2GHPpzqo2KjdhQ-40">
          <mxGeometry x="0.2282" relative="1" as="geometry">
            <mxPoint as="offset" />
          </mxGeometry>
        </mxCell>
        <mxCell id="77e6c97f196da883-5" value="nhà kho" style="swimlane;html=1;startSize=20;" parent="77e6c97f196da883-1" vertex="1">
          <mxGeometry x="510" y="20" width="160" height="720" as="geometry" />
        </mxCell>
        <mxCell id="1G4_OR2GHPpzqo2KjdhQ-37" value="Fullorder" style="rounded=1;whiteSpace=wrap;html=1;" vertex="1" parent="77e6c97f196da883-5">
          <mxGeometry x="20" y="40" width="120" height="60" as="geometry" />
        </mxCell>
        <mxCell id="1G4_OR2GHPpzqo2KjdhQ-38" value="Còn hàng ?" style="rhombus;whiteSpace=wrap;html=1;" vertex="1" parent="77e6c97f196da883-5">
          <mxGeometry x="40" y="355" width="80" height="80" as="geometry" />
        </mxCell>
        <mxCell id="1G4_OR2GHPpzqo2KjdhQ-39" value="" style="endArrow=classic;html=1;rounded=0;entryX=0.5;entryY=0;entryDx=0;entryDy=0;exitX=0.5;exitY=1;exitDx=0;exitDy=0;" edge="1" parent="77e6c97f196da883-5" source="1G4_OR2GHPpzqo2KjdhQ-37" target="1G4_OR2GHPpzqo2KjdhQ-38">
          <mxGeometry width="50" height="50" relative="1" as="geometry">
            <mxPoint x="-230" y="230" as="sourcePoint" />
            <mxPoint x="-180" y="180" as="targetPoint" />
          </mxGeometry>
        </mxCell>
        <mxCell id="1G4_OR2GHPpzqo2KjdhQ-42" value="" style="ellipse;html=1;shape=endState;fillColor=#000000;strokeColor=#ff0000;" vertex="1" parent="77e6c97f196da883-5">
          <mxGeometry x="65" y="650" width="30" height="30" as="geometry" />
        </mxCell>
        <mxCell id="1G4_OR2GHPpzqo2KjdhQ-43" value="Order complete" style="text;html=1;align=center;verticalAlign=middle;resizable=0;points=[];autosize=1;strokeColor=none;fillColor=none;" vertex="1" parent="77e6c97f196da883-5">
          <mxGeometry x="25" y="670" width="110" height="30" as="geometry" />
        </mxCell>
        <mxCell id="1G4_OR2GHPpzqo2KjdhQ-44" value="" style="endArrow=classic;html=1;rounded=0;exitX=0.5;exitY=1;exitDx=0;exitDy=0;entryX=0.5;entryY=0;entryDx=0;entryDy=0;" edge="1" parent="77e6c97f196da883-5" source="1G4_OR2GHPpzqo2KjdhQ-38" target="1G4_OR2GHPpzqo2KjdhQ-49">
          <mxGeometry width="50" height="50" relative="1" as="geometry">
            <mxPoint x="-180" y="660" as="sourcePoint" />
            <mxPoint x="80" y="600" as="targetPoint" />
          </mxGeometry>
        </mxCell>
        <mxCell id="1G4_OR2GHPpzqo2KjdhQ-45" value="yes" style="edgeLabel;html=1;align=center;verticalAlign=middle;resizable=0;points=[];" vertex="1" connectable="0" parent="1G4_OR2GHPpzqo2KjdhQ-44">
          <mxGeometry x="-0.2176" y="2" relative="1" as="geometry">
            <mxPoint as="offset" />
          </mxGeometry>
        </mxCell>
        <mxCell id="1G4_OR2GHPpzqo2KjdhQ-49" value="Send invoice" style="rounded=1;whiteSpace=wrap;html=1;" vertex="1" parent="77e6c97f196da883-5">
          <mxGeometry x="20" y="530" width="120" height="60" as="geometry" />
        </mxCell>
        <mxCell id="1G4_OR2GHPpzqo2KjdhQ-50" value="" style="endArrow=classic;html=1;rounded=0;entryX=0.5;entryY=0;entryDx=0;entryDy=0;" edge="1" parent="77e6c97f196da883-5" source="1G4_OR2GHPpzqo2KjdhQ-49" target="1G4_OR2GHPpzqo2KjdhQ-42">
          <mxGeometry width="50" height="50" relative="1" as="geometry">
            <mxPoint x="-180" y="450" as="sourcePoint" />
            <mxPoint x="-130" y="400" as="targetPoint" />
          </mxGeometry>
        </mxCell>
        <mxCell id="1G4_OR2GHPpzqo2KjdhQ-34" value="" style="endArrow=classic;html=1;rounded=0;exitX=0.5;exitY=1;exitDx=0;exitDy=0;" edge="1" parent="1" source="1G4_OR2GHPpzqo2KjdhQ-21">
          <mxGeometry width="50" height="50" relative="1" as="geometry">
            <mxPoint x="390" y="430" as="sourcePoint" />
            <mxPoint x="270" y="550" as="targetPoint" />
            <Array as="points">
              <mxPoint x="540" y="550" />
            </Array>
          </mxGeometry>
        </mxCell>
        <mxCell id="1G4_OR2GHPpzqo2KjdhQ-35" value="No" style="edgeLabel;html=1;align=center;verticalAlign=middle;resizable=0;points=[];" vertex="1" connectable="0" parent="1G4_OR2GHPpzqo2KjdhQ-34">
          <mxGeometry x="-0.6212" relative="1" as="geometry">
            <mxPoint as="offset" />
          </mxGeometry>
        </mxCell>
        <mxCell id="1G4_OR2GHPpzqo2KjdhQ-47" value="" style="endArrow=classic;html=1;rounded=0;endFill=1;exitX=-0.049;exitY=0.499;exitDx=0;exitDy=0;exitPerimeter=0;" edge="1" parent="1" source="1G4_OR2GHPpzqo2KjdhQ-38">
          <mxGeometry width="50" height="50" relative="1" as="geometry">
            <mxPoint x="540" y="550" as="sourcePoint" />
            <mxPoint x="540" y="550" as="targetPoint" />
          </mxGeometry>
        </mxCell>
        <mxCell id="1G4_OR2GHPpzqo2KjdhQ-48" value="No" style="edgeLabel;html=1;align=center;verticalAlign=middle;resizable=0;points=[];" vertex="1" connectable="0" parent="1G4_OR2GHPpzqo2KjdhQ-47">
          <mxGeometry x="0.0102" y="-3" relative="1" as="geometry">
            <mxPoint as="offset" />
          </mxGeometry>
        </mxCell>
      </root>
    </mxGraphModel>
  </diagram>
</mxfile>
